# xmcd CD database file
#
# Track frame offsets:
#	150
#	18017
#	34322
#	51690
#	73795
#	87240
#	103400
#	122482
#	139402
#	146507
#	162227
#	176342
#	195315
#	216740
#
# Disc length: 3129 seconds
#
# Revision: 2
# Processed by: cddbd v1.5.2PL0 Copyright (c) Steve Scherf et al.
# Submitted via: CDex 1.70beta2
#
DISCID=d40c370e
DTITLE=アンジー - @
DYEAR=1999
DGENRE=Rock
TTITLE0=センチメンタル ストリート
TTITLE1=東京コンフィデンシャル
TTITLE2=カンナの庭
TTITLE3=ガード下の情景
TTITLE4=太陽も知らんぷり
TTITLE5=夜と男と運命の魔の手
TTITLE6=心の迷路
TTITLE7=おとぎばなしの世界
TTITLE8=言っちゃいけない事がある
TTITLE9=雨のドライヴ、3つの言葉
TTITLE10=めぐり逢えたら
TTITLE11=ひまわりの道
TTITLE12=ママ
TTITLE13=Lesson
EXTD=YEAR: 1999
EXTT0=
EXTT1=
EXTT2=
EXTT3=
EXTT4=
EXTT5=
EXTT6=
EXTT7=
EXTT8=
EXTT9=
EXTT10=
EXTT11=
EXTT12=
EXTT13=
PLAYORDER=
